<svg xmlns="http://www.w3.org/2000/svg" width="44.281" height="44.281" viewBox="0 0 44.281 44.281"><g transform="translate(-91 -1594)"><circle cx="22.141" cy="22.141" r="22.141" transform="translate(91 1594)"/><path d="M12.952-.011A.986.986,0,0,0,12.3.174a6.014,6.014,0,0,1,1.416.378,1.67,1.67,0,0,1,.792.985.974.974,0,0,1-.633,1A3.234,3.234,0,0,1,11.7,2.522C10.022,2,8.377,1.344,6.662.939a5.846,5.846,0,0,0-2.7-.132,4.31,4.31,0,0,0-2.516,1.6A3.72,3.72,0,0,0,.979,5.786,2.325,2.325,0,0,0,2.72,7.361c-.273-.352-.748-.713-.616-1.223A2.1,2.1,0,0,1,2.791,4.8a1.61,1.61,0,0,1,1.416-.167c1.715.317,3.378.8,5.076,1.2,1.144.246,2.243.669,3.4.88C12.705,8,12.7,9.3,12.7,10.59c-.625.545-1.24,1.1-1.856,1.654.616.475,1.223.968,1.847,1.434.009,1.839,0,3.677.009,5.525a5.214,5.214,0,0,1-3.836.827,5.716,5.716,0,0,1-3.695-2,11.028,11.028,0,0,1,1.276-.677c1.205-.589,2.384-1.214,3.6-1.777.035-2.894.009-5.8.018-8.692-2.041.871-4.064,1.777-6.114,2.63A6.282,6.282,0,0,1,6.169,6.71a2.385,2.385,0,0,1,1.02-.66,3,3,0,0,0-1.214.211A9.486,9.486,0,0,0,.09,13.106a10.09,10.09,0,0,0,.493,4.742,9.08,9.08,0,0,0,3.589,4.337A10.9,10.9,0,0,0,6.662,23.3a9.075,9.075,0,0,0,6.167-1.064,7.251,7.251,0,0,0,2.833-3.352,9.71,9.71,0,0,0,.792-3.827,10.888,10.888,0,0,0-.616,1.073,10.222,10.222,0,0,1-2.692,3.035c.009-1.83-.018-3.668.018-5.5.625-.449,1.205-.95,1.83-1.39-.572-.6-1.232-1.108-1.839-1.671-.009-1.284.018-2.569-.009-3.862a3.839,3.839,0,0,0,3.07-1.671,3.594,3.594,0,0,0,.018-3.651A3.3,3.3,0,0,0,14.086.191C13.717.156,13.33,0,12.952-.011ZM6.345,8.8c.018,2.78,0,5.56.009,8.34-.475.2-.941.4-1.416.607a9.28,9.28,0,0,1-1.5-3.2A7.04,7.04,0,0,1,3.926,10C4.735,9.613,5.544,9.208,6.345,8.8Z" transform="translate(104.475 1603.639)" fill="#fff"/></g></svg>